<svg id="svg" version="1.1" xmlns="http://www.w3.org/2000/svg" xmlns:xlink="http://www.w3.org/1999/xlink" width="400" height="401.7857142857143" viewBox="0, 0, 400,401.7857142857143"><g id="svgg"><path id="path0" d="M366.732 4.018 C 367.324 6.228,367.876 12.857,367.958 18.750 C 368.072 26.909,368.513 28.613,369.805 25.893 C 371.284 22.780,371.386 22.895,370.597 26.786 C 370.099 29.241,369.681 33.862,369.667 37.054 L 369.643 42.857 331.345 42.857 L 293.046 42.857 281.237 33.919 C 241.828 4.090,188.172 4.381,149.241 34.635 L 138.661 42.857 69.331 42.857 L 0.000 42.857 0.000 60.714 L 0.000 78.571 7.143 78.571 L 14.286 78.571 14.286 139.286 L 14.286 200.000 7.143 200.000 L 0.000 200.000 0.000 283.929 L 0.000 367.857 23.661 368.222 L 47.321 368.586 24.107 369.643 L 0.893 370.699 23.065 371.064 C 35.260 371.265,44.744 371.922,44.141 372.526 C 43.537 373.130,33.358 373.490,21.521 373.327 L 0.000 373.030 0.000 380.265 L 0.000 387.500 11.161 387.818 C 23.528 388.171,25.418 388.096,32.726 386.960 C 38.340 386.087,47.201 392.209,49.132 398.293 C 50.132 401.443,51.935 401.785,67.531 401.779 L 84.821 401.773 90.225 386.216 C 95.604 370.733,95.702 370.601,111.081 358.098 C 126.532 345.536,133.588 339.133,124.801 345.649 C 103.828 361.201,67.955 389.716,68.100 390.720 C 68.585 394.077,67.660 396.429,65.853 396.429 C 64.468 396.429,64.536 395.601,66.071 393.750 C 69.422 389.713,65.327 390.532,61.607 394.643 C 57.085 399.640,54.129 399.129,47.143 392.143 C 39.088 384.088,39.254 383.162,52.391 362.951 C 58.616 353.373,67.416 339.509,71.946 332.143 C 111.011 268.616,114.788 265.637,136.156 281.507 C 155.001 295.504,185.517 307.361,201.527 306.908 C 209.165 306.692,208.903 306.564,198.214 305.284 C 155.432 300.160,113.388 268.444,101.259 232.143 C 96.770 218.708,96.863 215.072,101.800 210.952 L 106.250 207.239 99.107 210.887 C 86.393 217.379,69.060 213.368,61.688 202.228 C 38.468 167.141,72.186 110.618,100.587 137.018 C 104.541 140.694,105.606 141.119,104.732 138.673 C 101.244 128.913,136.910 70.097,162.030 44.183 C 173.766 32.076,173.637 32.069,170.389 44.588 C 162.290 75.810,167.426 74.890,199.972 39.286 C 203.777 35.124,205.279 34.229,204.468 36.607 C 202.368 42.771,201.373 66.774,203.039 71.101 L 204.631 75.239 209.508 70.363 C 212.189 67.681,218.134 58.893,222.718 50.834 L 231.052 36.182 240.583 52.309 L 250.113 68.437 245.146 73.951 L 240.179 79.464 245.571 74.613 C 249.508 71.072,252.099 70.059,255.172 70.863 C 258.068 71.620,259.894 71.044,261.029 69.017 C 264.489 62.834,279.164 72.425,283.960 84.005 C 285.189 86.972,286.548 89.047,286.979 88.616 C 289.977 85.618,270.859 64.286,265.173 64.286 C 263.048 64.286,262.500 61.665,262.500 51.509 C 262.500 39.430,262.671 38.890,265.625 41.624 C 267.344 43.214,274.345 49.767,281.183 56.186 C 298.410 72.357,301.682 71.665,294.713 53.324 L 291.212 44.109 296.520 49.195 C 324.745 76.236,338.847 137.850,329.589 193.676 C 327.071 208.862,326.929 216.902,329.376 205.761 C 330.457 200.837,338.749 192.857,342.785 192.857 C 345.464 192.857,345.069 195.638,342.030 198.159 C 339.744 200.057,339.770 200.864,342.236 204.628 C 345.735 209.969,347.640 210.025,351.813 204.911 C 357.433 198.023,357.893 205.171,352.805 220.327 C 340.820 256.032,295.370 333.597,290.722 326.281 C 289.962 325.085,289.328 341.585,289.313 362.946 L 289.286 401.786 324.833 401.786 C 358.625 401.786,360.337 401.621,359.510 398.460 C 358.342 393.991,362.979 392.912,383.482 392.882 L 400.000 392.857 400.000 378.383 L 400.000 363.908 394.852 369.419 C 383.867 381.179,374.757 381.374,363.529 370.089 C 338.658 345.093,335.178 310.965,354.521 281.737 C 359.440 274.303,360.000 272.387,356.696 274.288 C 355.400 275.034,355.088 274.891,355.952 273.947 C 356.771 273.053,357.998 272.321,358.678 272.321 C 359.359 272.321,363.511 269.408,367.905 265.847 C 377.660 257.941,384.517 254.427,393.289 252.839 L 399.971 251.629 399.934 205.926 C 399.913 180.789,399.526 160.593,399.073 161.046 C 395.340 164.779,391.111 191.600,393.930 193.661 C 396.093 195.243,396.368 196.255,394.884 197.172 C 393.737 197.881,393.338 199.333,393.997 200.399 C 394.656 201.466,394.375 201.831,393.372 201.211 C 392.369 200.591,390.149 201.631,388.438 203.521 C 385.389 206.891,385.241 206.855,380.898 201.693 C 378.462 198.798,374.977 196.429,373.154 196.429 C 371.331 196.429,363.985 193.491,356.830 189.900 C 343.321 183.120,343.069 180.808,355.804 180.483 L 360.714 180.357 360.365 167.411 L 360.015 154.464 359.390 166.518 C 358.818 177.560,358.435 178.572,354.829 178.582 C 352.664 178.588,348.683 179.746,345.982 181.155 C 343.281 182.564,341.067 183.564,341.061 183.376 C 340.993 181.133,337.362 161.308,336.552 158.756 C 334.732 153.020,339.168 154.953,343.094 161.607 C 348.204 170.269,348.893 169.725,352.713 154.018 L 356.079 140.179 357.819 146.875 C 360.039 155.419,362.500 155.498,362.500 147.024 C 362.500 139.396,364.422 140.460,366.964 149.496 C 368.856 156.218,371.957 157.706,372.864 152.326 C 373.322 149.606,373.119 149.522,371.552 151.786 C 370.069 153.928,369.692 153.481,369.670 149.554 C 369.642 144.525,372.202 142.872,373.817 146.875 C 374.313 148.103,374.781 147.299,374.859 145.089 C 375.091 138.467,378.571 140.559,378.571 147.321 C 378.571 150.759,379.461 153.571,380.548 153.571 C 381.684 153.571,382.024 152.265,381.347 150.501 C 380.699 148.812,380.712 147.974,381.377 148.639 C 382.042 149.304,384.067 148.074,385.877 145.906 L 389.167 141.964 389.226 149.256 C 389.300 158.356,390.379 159.465,395.740 155.952 L 400.000 153.161 400.000 76.580 L 400.000 0.000 382.827 0.000 C 365.890 0.000,365.670 0.055,366.732 4.018 M175.616 76.742 C 167.427 81.439,156.551 92.512,152.774 100.000 C 152.031 101.473,153.692 99.866,156.466 96.429 C 167.434 82.836,176.946 75.885,188.393 73.098 C 193.290 71.906,193.367 71.780,189.286 71.628 C 186.830 71.537,180.679 73.838,175.616 76.742 M210.309 80.357 C 212.244 83.795,214.371 88.912,215.036 91.729 C 215.701 94.545,216.586 96.509,217.003 96.092 C 218.492 94.603,214.182 82.955,210.520 78.571 L 206.790 74.107 210.309 80.357 M328.592 77.666 C 330.266 76.631,332.032 91.483,331.607 103.017 C 331.252 112.639,330.740 111.958,323.864 92.700 C 318.625 78.025,318.425 76.725,321.564 77.721 C 323.742 78.413,325.052 77.951,325.141 76.460 C 325.250 74.646,325.489 74.621,326.186 76.350 C 326.684 77.584,327.767 78.176,328.592 77.666 M368.345 79.978 C 368.123 81.030,367.861 95.255,367.765 111.589 C 367.614 136.975,367.221 140.981,365.062 139.189 C 363.038 137.509,362.237 137.900,361.033 141.154 C 359.766 144.579,359.352 144.751,358.393 142.251 C 356.195 136.523,353.927 139.403,350.896 151.774 C 349.213 158.643,347.104 163.810,346.210 163.258 C 345.316 162.705,345.047 161.505,345.612 160.591 C 346.177 159.677,345.924 158.929,345.050 158.929 C 344.176 158.929,342.391 156.930,341.083 154.486 C 339.378 151.300,338.094 150.552,336.540 151.841 C 334.942 153.168,334.375 152.469,334.375 149.173 C 334.375 146.717,335.076 145.141,335.932 145.670 C 336.789 146.200,336.672 144.482,335.672 141.854 C 334.315 138.285,332.850 88.361,333.800 78.067 C 333.871 77.298,341.763 76.983,351.339 77.366 C 362.455 77.811,368.604 78.755,368.345 79.978 M60.714 106.786 C 60.714 126.884,60.072 135.692,58.482 137.405 C 57.134 138.858,57.059 139.357,58.295 138.665 C 59.420 138.036,60.801 138.721,61.364 140.189 C 61.927 141.656,61.610 142.857,60.658 142.857 C 59.707 142.857,59.053 143.460,59.204 144.196 C 59.356 144.933,57.984 148.750,56.156 152.679 C 53.644 158.075,52.760 164.513,52.539 179.004 C 52.369 190.099,51.403 199.203,50.246 200.597 C 49.145 201.923,48.672 203.434,49.193 203.955 C 49.715 204.477,48.419 205.354,46.314 205.905 C 43.132 206.737,42.612 206.248,43.235 203.006 C 43.940 199.335,43.429 199.143,34.492 199.719 C 23.843 200.405,24.292 199.505,24.568 219.643 C 24.689 228.428,24.504 227.965,22.814 215.263 C 21.413 204.735,21.452 200.885,22.962 200.382 C 24.191 199.972,25.000 195.390,25.000 188.839 C 25.000 170.519,22.592 176.574,19.852 201.786 C 18.863 210.879,18.310 193.250,18.127 146.875 L 17.857 78.571 39.286 78.571 L 60.714 78.571 60.714 106.786 M105.693 81.674 C 106.021 83.381,104.206 88.805,101.658 93.728 C 99.110 98.651,94.932 107.900,92.373 114.281 C 88.308 124.418,87.015 126.028,82.131 127.027 C 79.056 127.656,73.382 130.709,69.520 133.812 L 62.500 139.454 62.500 109.013 L 62.500 78.571 83.798 78.571 C 102.604 78.571,105.165 78.934,105.693 81.674 M233.137 116.469 C 231.608 118.652,230.430 122.469,230.518 124.951 C 230.666 129.105,230.808 129.020,232.297 123.885 C 235.607 112.470,243.054 111.324,248.452 121.401 C 250.286 124.823,251.786 126.338,251.786 124.767 C 251.786 115.053,238.324 109.063,233.137 116.469 M192.581 121.504 C 188.804 125.474,185.714 129.612,185.714 130.700 C 185.714 131.788,188.081 129.412,190.973 125.420 C 198.644 114.830,207.125 113.788,212.369 122.790 C 213.364 124.496,214.202 124.947,214.231 123.790 C 214.302 121.071,205.684 114.286,202.161 114.286 C 200.668 114.286,196.357 117.534,192.581 121.504 M48.218 165.179 C 47.952 167.143,47.924 172.269,48.155 176.569 C 48.410 181.329,47.697 184.930,46.332 185.774 C 43.755 187.367,42.321 196.429,44.646 196.429 C 45.496 196.429,46.446 194.219,46.756 191.518 C 47.067 188.817,48.125 186.742,49.107 186.907 C 50.732 187.179,50.831 174.717,49.281 165.179 L 48.701 161.607 48.218 165.179 M337.109 173.214 C 337.025 176.161,336.275 178.571,335.443 178.571 C 333.665 178.571,333.593 177.326,335.054 171.875 C 336.534 166.351,337.290 166.843,337.109 173.214 M340.946 188.776 C 341.122 191.817,334.483 195.199,333.011 192.818 C 332.388 191.809,332.540 191.098,333.349 191.239 C 336.622 191.807,339.286 190.977,339.286 189.388 C 339.286 188.462,337.657 188.019,335.667 188.402 C 333.651 188.790,332.519 188.336,333.111 187.378 C 333.697 186.431,334.923 186.118,335.838 186.683 C 336.752 187.248,337.556 185.855,337.626 183.588 C 337.761 179.142,340.650 183.656,340.946 188.776 M367.050 198.353 C 367.640 199.308,367.460 199.973,366.651 199.833 C 360.659 198.792,353.087 200.525,350.518 203.525 C 347.712 206.802,347.273 206.844,344.271 204.128 C 341.313 201.451,341.280 200.943,343.878 198.073 C 346.071 195.649,346.277 194.124,344.785 191.337 C 343.725 189.356,342.857 186.971,342.857 186.038 C 342.857 184.153,365.350 195.603,367.050 198.353 M0.000 189.397 C -0.000 193.740,2.895 193.885,5.159 189.656 C 6.520 187.113,6.165 186.401,3.436 186.195 C 1.138 186.022,0.000 187.082,0.000 189.397 M366.333 211.945 C 365.862 219.525,365.270 221.338,364.004 219.076 C 363.071 217.408,362.799 215.246,363.402 214.272 C 364.004 213.297,363.331 212.500,361.906 212.500 C 360.481 212.500,358.788 214.604,358.142 217.175 C 357.497 219.746,356.548 221.429,356.034 220.915 C 355.520 220.401,356.614 216.674,358.467 212.633 C 360.319 208.593,362.386 205.838,363.060 206.513 C 363.734 207.187,364.286 206.399,364.286 204.762 C 364.286 203.125,364.888 201.785,365.625 201.783 C 366.362 201.782,366.680 206.355,366.333 211.945 M323.571 219.107 C 320.929 227.717,322.208 228.996,325.000 220.536 C 326.178 216.967,326.794 213.699,326.370 213.275 C 325.946 212.850,324.686 215.475,323.571 219.107 M316.683 235.268 C 304.361 261.650,285.068 284.590,267.817 293.372 C 262.437 296.111,260.045 297.836,262.500 297.205 C 276.556 293.593,293.655 277.631,307.824 254.895 C 315.624 242.378,322.348 228.571,320.643 228.571 C 320.185 228.571,318.403 231.585,316.683 235.268 M102.659 242.857 C 102.700 243.348,103.288 244.621,103.967 245.685 C 104.645 246.749,104.102 247.619,102.760 247.619 C 101.365 247.619,100.587 246.233,100.943 244.383 C 101.286 242.603,100.812 240.680,99.890 240.111 C 98.968 239.541,98.239 238.118,98.269 236.948 C 98.317 235.053,102.476 240.650,102.659 242.857 M185.844 263.634 C 170.835 282.715,213.658 308.128,231.222 290.563 C 235.591 286.195,237.500 282.669,237.500 278.969 C 237.500 269.926,233.240 268.293,220.234 272.348 C 217.249 273.278,214.542 271.878,208.427 266.242 C 198.714 257.288,191.491 256.454,185.844 263.634 M378.746 286.551 C 376.686 292.057,375.042 297.537,375.093 298.728 C 375.144 299.919,377.114 295.698,379.471 289.349 C 381.828 282.999,383.472 277.520,383.124 277.172 C 382.776 276.824,380.806 281.045,378.746 286.551 M241.071 301.964 C 231.476 304.670,230.842 305.055,237.412 304.187 C 241.783 303.609,248.211 302.086,251.697 300.801 C 260.774 297.457,254.692 298.123,241.071 301.964 M219.217 306.620 C 221.439 307.047,224.653 307.031,226.360 306.584 C 228.067 306.137,226.250 305.788,222.321 305.807 C 218.393 305.827,216.996 306.193,219.217 306.620 M160.268 354.832 C 162.478 355.257,166.094 355.257,168.304 354.832 C 170.513 354.406,168.705 354.058,164.286 354.058 C 159.866 354.058,158.058 354.406,160.268 354.832 M191.428 354.900 C 199.972 355.226,214.436 355.228,223.570 354.903 C 232.705 354.578,225.714 354.311,208.036 354.309 C 190.357 354.307,182.883 354.573,191.428 354.900 M115.179 361.575 C 109.286 364.971,105.125 367.773,105.932 367.803 C 106.739 367.833,111.159 365.647,115.753 362.946 C 122.268 359.117,127.252 357.807,138.393 356.999 L 152.679 355.961 139.286 355.682 C 127.011 355.425,124.998 355.917,115.179 361.575 M245.189 359.658 L 250.199 364.286 244.867 364.286 C 240.756 364.286,239.357 363.365,238.760 360.268 L 237.986 356.250 237.743 360.268 C 237.501 364.268,237.352 364.287,204.018 364.682 L 170.536 365.079 212.477 366.022 C 250.566 366.878,254.474 367.251,255.019 370.089 C 255.524 372.720,254.115 373.264,246.113 373.526 C 237.156 373.820,237.045 373.878,244.196 374.522 L 251.786 375.205 252.048 385.371 L 252.311 395.536 253.534 385.714 C 254.207 380.313,255.392 374.457,256.167 372.701 C 257.762 369.088,254.122 364.250,245.536 358.572 L 240.179 355.030 245.189 359.658 M101.339 374.174 C 92.153 386.451,99.233 388.621,144.643 387.444 L 181.250 386.495 142.857 386.077 C 121.741 385.848,103.381 384.973,102.056 384.134 C 99.155 382.295,100.033 375.819,103.149 376.071 C 104.364 376.170,123.780 376.371,146.298 376.518 C 183.656 376.762,187.310 377.059,188.055 379.911 C 188.802 382.770,188.889 382.776,189.079 379.989 C 189.249 377.478,191.562 376.834,202.232 376.326 C 209.353 375.987,190.910 375.550,161.249 375.355 C 117.157 375.065,107.060 374.544,105.892 372.499 C 104.757 370.510,103.824 370.853,101.339 374.174 M295.457 371.301 C 296.020 372.212,302.034 375.518,308.821 378.646 C 320.451 384.007,324.298 389.286,316.575 389.286 C 314.704 389.286,315.168 390.350,318.106 392.798 L 322.321 396.310 306.696 396.369 L 291.071 396.429 291.071 383.036 C 291.071 370.946,292.641 366.745,295.457 371.301 M84.400 388.757 C 82.203 389.181,78.185 389.192,75.471 388.781 C 72.757 388.371,74.554 388.024,79.464 388.011 C 84.375 387.997,86.596 388.333,84.400 388.757 M0.595 391.936 C 0.595 393.983,1.155 394.122,3.052 392.547 C 4.908 391.007,6.036 391.068,7.665 392.799 C 9.368 394.608,9.262 394.918,7.159 394.276 C 4.179 393.366,0.000 396.795,0.000 400.149 C 0.000 401.667,0.960 401.496,3.125 399.593 C 4.844 398.082,9.866 395.213,14.286 393.216 C 19.618 390.808,21.090 389.536,18.661 389.436 C 16.647 389.353,13.918 390.290,12.595 391.518 C 10.671 393.304,10.442 393.304,11.451 391.518 C 12.351 389.923,10.981 389.286,6.653 389.286 C 2.488 389.286,0.595 390.114,0.595 391.936 M338.635 393.739 C 342.289 395.644,342.821 396.410,340.497 396.418 C 338.709 396.424,336.040 395.223,334.566 393.750 C 331.189 390.373,332.175 390.370,338.635 393.739 M382.750 398.580 C 379.961 399.330,376.071 399.502,374.107 398.962 C 371.212 398.166,371.043 398.336,373.214 399.856 C 376.651 402.262,400.000 402.387,400.000 400.000 C 400.000 399.018,399.397 398.149,398.661 398.069 C 391.435 397.287,387.038 397.428,382.750 398.580 " stroke="none" fill="#000000" fill-rule="evenodd"></path></g></svg>